<?xml version="1.0" standalone="no"?>
<!DOCTYPE svg PUBLIC "-//W3C//DTD SVG 20010904//EN"
 "http://www.w3.org/TR/2001/REC-SVG-20010904/DTD/svg10.dtd">
<svg version="1.0" xmlns="http://www.w3.org/2000/svg"
 width="900.000000pt" height="900.000000pt" viewBox="0 0 900.000000 900.000000"
 preserveAspectRatio="xMidYMid meet">
<metadata>
Created by potrace 1.10, written by Peter Selinger 2001-2011
</metadata>
<g transform="translate(0.000000,900.000000) scale(0.100000,-0.100000)"
fill="#000000" stroke="none">
<path d="M4125 8991 c8 -14 -18 -19 -140 -31 -60 -5 -128 -14 -150 -20 -22 -5
-56 -10 -75 -10 -42 0 -130 -18 -345 -70 -27 -7 -66 -16 -85 -20 -19 -5 -48
-13 -65 -18 -16 -6 -97 -32 -180 -58 -139 -44 -169 -55 -250 -89 -16 -7 -50
-21 -75 -30 -106 -42 -276 -124 -427 -206 -33 -19 -81 -45 -105 -58 -23 -13
-62 -36 -86 -52 -24 -16 -45 -29 -47 -29 -2 0 -34 -21 -72 -47 -37 -26 -88
-60 -113 -77 -278 -186 -637 -517 -895 -826 -90 -107 -335 -448 -335 -466 0
-1 -13 -22 -29 -46 -16 -24 -39 -61 -51 -83 -12 -22 -31 -56 -42 -75 -75 -126
-221 -440 -283 -610 -7 -19 -19 -53 -27 -75 -25 -67 -39 -108 -54 -160 -8 -27
-21 -72 -30 -100 -8 -27 -19 -66 -23 -85 -21 -87 -34 -139 -47 -186 -8 -28
-14 -61 -14 -73 0 -13 -6 -50 -14 -84 -47 -198 -61 -390 -61 -817 0 -446 9
-567 61 -815 8 -38 14 -79 14 -89 0 -11 6 -42 14 -70 13 -47 26 -99 47 -186 4
-19 15 -60 25 -90 9 -30 22 -75 29 -100 15 -48 29 -91 53 -155 8 -22 20 -56
27 -75 61 -167 179 -423 268 -582 18 -31 43 -76 56 -100 13 -24 36 -62 52 -86
16 -24 29 -45 29 -46 0 -18 225 -331 323 -451 256 -311 622 -650 907 -841 25
-17 76 -51 113 -77 38 -26 70 -47 72 -47 2 0 23 -13 47 -29 24 -16 63 -39 86
-52 24 -13 69 -38 100 -55 173 -96 405 -203 585 -270 20 -8 54 -20 75 -28 20
-8 84 -28 142 -46 58 -17 119 -36 135 -42 17 -5 46 -13 65 -18 19 -4 58 -13
85 -20 178 -43 249 -57 345 -70 36 -4 94 -13 130 -18 153 -25 284 -32 600 -32
382 0 474 7 825 66 84 15 116 22 250 54 28 7 66 16 85 20 19 5 49 13 65 18 17
6 77 25 135 42 101 31 126 39 215 73 196 74 382 160 582 268 33 19 81 45 105
58 23 13 62 36 86 52 24 16 45 29 47 29 2 0 34 21 72 47 37 26 88 60 113 77
285 191 651 530 907 841 98 120 323 433 323 451 0 1 13 22 29 46 16 24 39 62
52 86 13 24 38 69 56 100 94 171 201 402 270 587 8 22 21 55 29 73 8 18 14 39
14 47 0 8 6 29 14 47 7 18 21 60 31 93 10 33 23 80 31 105 7 25 19 72 27 105
8 33 21 83 27 110 7 28 16 70 20 95 4 25 12 72 18 105 33 171 42 235 43 285 1
82 13 145 27 142 9 -1 12 83 12 359 0 309 -2 363 -15 373 -10 8 -16 38 -20
101 -6 95 -26 232 -51 350 -8 39 -14 79 -14 89 0 11 -6 42 -14 70 -13 47 -26
99 -47 186 -4 19 -15 60 -25 90 -9 30 -22 75 -29 100 -68 229 -212 565 -349
812 -17 31 -41 75 -53 97 -12 22 -35 60 -50 83 -15 24 -30 48 -33 53 -3 6 -27
43 -55 83 -27 41 -54 81 -60 90 -19 31 -159 217 -208 277 -256 311 -623 651
-907 841 -25 17 -76 51 -113 77 -38 26 -70 47 -72 47 -2 0 -23 13 -47 29 -24
16 -63 39 -86 52 -24 13 -72 39 -105 58 -153 83 -324 165 -427 205 -25 10 -53
22 -62 27 -37 19 -353 127 -408 139 -19 5 -48 13 -65 18 -16 6 -57 17 -90 25
-33 8 -82 21 -110 27 -27 7 -70 16 -95 20 -25 4 -70 13 -100 18 -96 19 -192
32 -300 43 -118 11 -143 16 -135 30 4 5 -139 9 -365 9 -226 0 -369 -4 -365 -9z
m2817 -1942 c66 -14 137 -80 160 -149 48 -140 50 -153 46 -280 -3 -112 -6
-131 -31 -181 -82 -167 -175 -224 -532 -323 -71 -20 -152 -43 -180 -51 -81
-23 -159 -42 -360 -90 -104 -25 -206 -49 -225 -54 -19 -5 -87 -19 -150 -31
-63 -11 -144 -27 -180 -35 -36 -8 -83 -17 -105 -20 -22 -3 -83 -15 -135 -26
-182 -39 -226 -48 -340 -69 -150 -27 -267 -47 -360 -60 -41 -6 -115 -17 -165
-25 -49 -8 -148 -23 -220 -34 -71 -11 -188 -29 -260 -40 -168 -26 -243 -36
-390 -55 -66 -9 -156 -21 -200 -27 -44 -6 -129 -17 -190 -24 -267 -34 -412
-56 -459 -69 -60 -18 -111 -63 -120 -107 -10 -51 -7 -409 5 -500 11 -90 41
-187 71 -231 29 -42 77 -53 177 -39 102 15 280 46 371 66 36 8 99 21 140 30
41 8 174 38 295 66 121 29 251 58 288 65 38 8 73 16 78 20 5 3 30 9 57 14 49
8 580 140 668 165 28 8 59 15 69 15 10 0 41 7 69 14 28 8 89 24 136 35 47 11
123 29 170 40 105 25 316 71 490 107 54 12 130 18 210 18 136 1 147 -3 218
-68 75 -69 135 -244 134 -389 0 -83 -3 -94 -43 -179 -33 -68 -55 -101 -93
-134 -57 -49 -137 -94 -213 -118 -29 -9 -74 -23 -100 -31 -27 -8 -55 -15 -64
-15 -9 0 -39 -6 -65 -14 -52 -15 -147 -39 -329 -81 -60 -14 -135 -32 -165 -39
-30 -7 -91 -21 -135 -31 -44 -9 -105 -23 -135 -30 -67 -17 -381 -89 -505 -117
-49 -11 -115 -26 -145 -33 -30 -7 -89 -20 -130 -29 -41 -9 -151 -34 -245 -56
-93 -22 -210 -49 -260 -61 -49 -12 -113 -27 -141 -35 -28 -8 -58 -14 -66 -14
-9 0 -38 -6 -64 -14 -27 -8 -101 -27 -165 -42 -189 -43 -229 -78 -195 -169 49
-127 212 -258 456 -365 116 -51 301 -118 355 -129 22 -5 103 -25 180 -46 267
-70 633 -122 930 -131 190 -6 511 4 859 26 327 21 587 87 662 167 35 37 31 86
-12 178 -35 72 -36 80 -31 148 16 205 208 414 451 494 101 33 255 33 361 -1
169 -54 325 -188 395 -341 57 -123 74 -208 66 -329 -16 -251 -104 -423 -310
-601 -69 -60 -188 -150 -216 -162 -8 -4 -31 -16 -50 -28 -145 -90 -274 -143
-629 -261 -57 -19 -129 -38 -160 -44 -31 -6 -105 -21 -166 -35 -153 -35 -357
-69 -575 -96 -172 -21 -220 -23 -695 -22 -408 0 -532 4 -620 16 -60 9 -139 19
-175 22 -160 15 -203 23 -540 96 -160 36 -271 72 -505 166 -77 31 -223 106
-290 148 -11 8 -44 26 -73 42 -72 40 -279 209 -382 312 -138 139 -272 332
-385 555 -62 122 -113 183 -161 192 -20 4 -87 0 -151 -9 -100 -13 -122 -14
-169 -1 -75 19 -109 38 -159 89 -60 59 -93 129 -106 222 -34 238 46 386 281
523 120 70 156 105 166 155 4 22 2 209 -5 415 -14 407 -19 445 -81 550 -86
148 -105 212 -105 360 1 160 27 258 103 379 70 112 201 207 357 259 109 36
166 43 338 44 147 0 173 -6 322 -75 l90 -42 120 1 c105 1 188 10 490 54 39 6
114 17 167 24 53 8 105 17 115 20 10 3 54 10 98 15 44 6 121 17 170 26 50 8
128 22 175 30 181 31 506 89 620 110 41 8 113 21 160 29 264 48 372 68 430 81
36 7 83 17 105 20 22 3 69 12 105 20 36 7 101 21 145 29 44 9 181 36 305 61
124 24 268 54 320 66 52 11 124 27 160 34 87 17 185 39 300 65 210 48 313 58
402 39z"/>
</g>
</svg>
