<?xml version="1.0" standalone="no"?>
<!DOCTYPE svg PUBLIC "-//W3C//DTD SVG 20010904//EN"
 "http://www.w3.org/TR/2001/REC-SVG-20010904/DTD/svg10.dtd">
<svg version="1.0" xmlns="http://www.w3.org/2000/svg"
 width="200.000000pt" height="200.000000pt" viewBox="0 0 200.000000 200.000000"
 preserveAspectRatio="xMidYMid meet">
<metadata>
Created by potrace 1.10, written by Peter Selinger 2001-2011
</metadata>
<g transform="translate(0.000000,200.000000) scale(0.050000,-0.050000)"
fill="#000000" stroke="none">
<path d="M1610 3670 c-198 -115 -560 -324 -805 -464 l-444 -256 0 -950 0 -950
808 -465 c445 -256 819 -465 832 -465 21 0 264 126 309 160 11 9 54 35 95 58
119 66 221 125 279 160 29 18 257 149 505 292 l451 260 0 950 0 951 -451 259
c-248 143 -476 274 -505 292 -59 35 -161 94 -279 160 -41 23 -84 49 -95 58
-50 38 -289 160 -313 159 -15 0 -189 -95 -387 -209z m1090 -468 l690 -397 5
-801 5 -801 -275 -159 c-151 -87 -466 -269 -700 -403 l-425 -245 -565 325
c-311 179 -619 358 -685 398 l-120 72 -5 803 -5 803 55 38 c30 22 159 98 285
171 127 72 410 235 630 362 220 127 405 231 410 231 6 0 321 -179 700 -397z"/>
<path d="M1304 2936 c-35 -35 -35 -1837 0 -1872 34 -34 1358 -34 1392 0 18 18
24 208 24 732 l0 708 -226 228 -227 228 -469 0 c-339 0 -477 -7 -494 -24z
m956 -296 l0 -140 130 0 130 0 0 -640 0 -640 -520 0 -520 0 0 780 0 780 390 0
390 0 0 -140z"/>
<path d="M1614 2307 c-8 -7 -14 -53 -14 -100 l0 -87 401 0 401 0 -6 95 -6 95
-381 5 c-210 3 -388 0 -395 -8z"/>
<path d="M1608 1912 c-6 -15 -8 -58 -4 -95 l6 -67 390 0 390 0 0 90 0 90 -385
5 c-319 5 -388 1 -397 -23z"/>
<path d="M1600 1470 l0 -90 400 0 400 0 0 90 0 90 -400 0 -400 0 0 -90z"/>
</g>
</svg>
