<svg width="810" height="507" viewBox="0 0 810 507" fill="none" xmlns="http://www.w3.org/2000/svg">
<head xmlns=""/><head xmlns=""/><head xmlns=""/><path d="M253.794 0C254.788 1.02735 254.7 2.66393 255.312 2.99176C266.716 9.09573 275.157 18.2923 283.843 27.6814C287.768 31.9239 296.119 32.2133 302.55 33.9719C335.127 42.8792 364.742 57.464 391.013 78.8818C418.246 101.085 440.209 127.572 456.081 158.847C461.287 169.105 464.494 180.244 473.984 187.932C486.555 198.115 498.762 208.746 511.552 219.546C536.214 209.54 561.547 199.261 588.427 188.354C558.452 238.848 565.14 290.603 576.785 342.944C577.335 340.984 578.322 339.034 578.37 337.061C579.009 310.746 578.654 284.371 580.343 258.127C581.582 238.868 582.017 219.354 589.386 200.742C592.266 193.465 597.417 192.117 603.045 190.093C617.898 184.751 632.509 178.252 647.798 174.767C659.073 172.196 671.281 173.113 683.044 173.461C693.33 173.765 703.556 175.726 713.845 176.44C726.107 177.291 738.424 177.346 750.687 178.19C769.916 179.513 789.119 181.209 808.334 182.747C808.718 183.602 809.102 184.458 809.487 185.313C806.539 187.749 803.926 191.537 800.582 192.363C790.969 194.739 781.102 196.249 771.258 197.489C756.072 199.401 740.778 200.495 725.634 202.663C722.245 203.148 717.443 206.118 716.648 208.903C715.846 211.713 718.483 216.368 720.896 219.069C727.575 226.543 735.061 233.288 741.953 240.581C746.274 245.153 746.499 250.399 742.34 256.33C727.261 241.919 706.088 240.635 688.596 231.306C681.688 227.623 675.586 221.676 670.43 215.639C662.942 206.872 655.859 205.187 645.963 211.711C634.273 219.419 622.554 227.081 610.848 234.762C611.173 235.532 611.499 236.302 611.824 237.073C618.635 235.263 625.445 233.453 634.158 231.137C625.456 282.709 617.244 333.218 579.57 373.003C532.741 349.613 486.656 326.594 440.041 303.311C431.468 338.167 416.306 368.39 393.676 394.886C420.648 374.791 439.556 348.491 452.818 316.746C458.48 323.215 463.743 328.854 468.48 334.905C469.64 336.387 469.839 339.469 469.197 341.386C460.36 367.744 447.593 392.066 430.656 414.144C406.97 445.02 377.208 468.43 342.067 484.856C318.541 495.852 293.984 503.786 267.795 505.195C252.023 506.044 236.114 507.741 220.456 506.555C193.549 504.519 167.585 497.625 142.747 486.667C111.135 472.722 83.8056 452.849 60.8647 427.208C32.4734 395.474 13.9465 358.766 4.84159 316.866C-0.406321 292.715 -0.647521 268.527 0.680254 244.41C2.08841 218.833 9.09965 194.203 19.5345 170.518C31.7552 142.779 48.3901 118.284 69.5549 96.7301C97.6898 68.0785 131.345 48.5321 169.353 36.1012C170.733 44.3349 168.99 47.3067 161.946 50.2767C128.587 64.343 100.008 84.9443 77.3744 113.79C103.303 92.4378 130.333 73.0021 162.769 62.8222C164.077 73.5298 157.052 76.4969 149.747 79.944C125.869 91.2116 104.686 106.536 87.2241 126.255C60.237 156.731 42.5597 191.714 35.6592 232.446C26.6218 285.792 40.6248 332.579 71.9849 375.272C76.6109 381.57 81.6183 387.587 86.4492 393.734C87.093 393.313 87.7368 392.892 88.3806 392.47C85.2579 386.952 82.2981 381.335 78.9835 375.935C66.5583 355.692 58.8129 333.802 55.316 310.338C54.5081 304.917 52.1983 299.522 52.4403 294.199C52.6626 289.312 54.7209 284.165 57.1537 279.791C62.8503 269.549 69.259 259.702 75.374 249.693C81.7109 239.319 99.3418 236.06 110.849 244.201C124.074 253.558 137.832 261.714 153.658 266.08C171.53 271.01 188.638 269.735 204.1 262.294C190.664 260.466 175.743 260.456 162.252 256.06C147.398 251.221 133.457 243.031 119.864 235.032C108.021 228.063 95.3629 227.998 85.1109 234.959C82.2119 236.927 78.9145 238.309 75.3878 239.366C82.3717 229.497 86.4043 217.484 99.8605 213.381C110.238 210.217 119.133 213.373 127.706 217.627C144.258 225.839 160.205 235.27 176.753 243.491C185.715 247.944 195.126 252.157 206.403 249.007C204.614 248.054 202.898 246.46 201.026 246.25C184.239 244.366 169.821 238.12 158.233 225.341C152.342 218.846 145.481 213.197 138.819 207.443C130.576 200.321 120.745 199.831 110.556 201.44C108.068 201.833 105.584 202.252 102.459 202.764C115.391 186.367 135.623 182.248 150.91 193.873C161.769 202.13 170.839 212.704 181.02 221.898C188.098 228.291 195.707 234.096 201.91 239.201C205.894 228.716 209.446 219.371 213.339 209.125C205.5 199.741 193.096 195.084 181.341 189.557C170.344 184.387 159.096 179.747 147.935 174.927C126.072 165.485 133.686 145.365 147.009 136.359C158.194 128.798 169.827 121.654 181.995 115.869C193.188 110.547 200.666 102.515 205.512 91.6711C209.143 83.5479 212.121 75.1329 214.548 66.0615C201.934 83.1724 190.425 101.433 164.802 102.694C176.304 62.4271 190.445 24.0226 229.108 0.493351C236.772 -4.82616e-08 244.905 0 253.794 0ZM367.96 188.883C372.814 183.559 377.498 178.068 382.567 172.958C388.317 167.16 394.739 162.13 403.423 162.014C408.774 161.942 414.134 162.603 420.354 162.989C393.272 119.054 357.204 87.5751 308.377 70.5589C311.76 83.7761 314.928 95.5427 317.754 107.391C319.835 116.114 321.626 123.991 331.524 128.452C343.495 133.848 348.63 144.913 348.721 158.012C361.433 156.922 373.942 155.85 386.452 154.778C386.575 155.509 386.698 156.24 386.821 156.972C385.749 157.542 384.679 158.116 383.605 158.684C373.089 164.248 360.98 168.062 352.462 175.82C341.954 185.391 335.563 199.399 325.334 209.382C312.782 221.632 298.14 231.75 284.312 242.677C281.462 244.929 278.221 246.684 275.161 248.668C275.739 249.555 276.317 250.441 276.895 251.328C311.275 237.026 342.2 217.508 367.96 188.883ZM161.481 382.075C167.428 379.154 172.855 374.705 180.168 379.712C199.539 392.977 219.302 405.672 238.627 419.001C243.901 422.639 248.361 422.541 253.35 419.381C272.064 407.525 290.935 395.909 309.447 383.746C333.132 368.185 350.631 347.345 362.061 321.254C363.914 317.023 368.19 313.184 372.284 310.726C386.257 302.338 400.648 294.647 414.879 286.69C414.634 286.058 414.388 285.426 414.143 284.794C412.03 285.271 409.867 285.59 407.813 286.25C391.999 291.334 376.06 296.092 360.508 301.884C356.539 303.362 352.482 307.605 350.76 311.574C344.847 325.208 336.918 337.414 326.681 347.981C305.069 370.29 277.852 384.917 252.078 401.51C247.073 404.733 242.936 403.535 238.172 400.755C219.745 390.002 201.364 379.11 182.388 369.398C178.071 367.189 170.527 367.794 166.117 370.167C160.928 372.959 158.373 372.626 154.471 368.91C148.909 363.615 142.769 358.926 136.876 353.979C136.038 354.874 135.2 355.77 134.362 356.666C142.986 365.152 151.61 373.639 161.481 382.075ZM202.725 188.642C207.118 191.965 211.667 195.102 215.868 198.652C223.323 204.95 223.255 205.058 233.366 199.994C221.177 192.401 209.749 185.3 198.339 178.171C189.956 172.933 181.15 168.235 173.362 162.223C166.689 157.073 167.493 151.979 175.025 147.469C184.614 141.727 194.423 136.313 204.392 131.258C211.642 127.582 217.375 122.987 220.62 115.206C224.401 106.141 228.436 97.1123 233.242 88.5632C237.984 80.1264 244.324 80.1423 249.388 88.388C252.748 93.8592 255.503 99.8247 257.677 105.875C262.015 117.95 268.618 127.28 281.015 132.718C290.706 136.969 299.933 142.712 308.487 148.99C315.717 154.298 314.991 158.995 307.324 163.641C291.964 172.95 276.335 181.815 261.02 191.196C257.066 193.618 253.868 197.274 250.322 200.362C250.652 201.078 250.981 201.793 251.311 202.508C254.537 202.508 258.431 203.675 260.86 202.284C267.539 198.46 273.311 193.06 279.972 189.199C292.806 181.76 306.358 175.522 318.96 167.73C333.101 158.985 333.094 149.329 318.613 141.058C307.217 134.549 294.741 129.883 282.596 124.751C275.852 121.901 270.509 118.742 268.424 110.663C266.242 102.202 262.864 93.8134 258.577 86.1994C254.644 79.2145 251.573 69.7549 241.26 69.7918C229.825 69.8328 225.9 79.7759 222.965 87.9608C215.282 109.383 200.915 123.6 180.798 133.245C172.859 137.051 165.293 141.995 158.362 147.445C151.432 152.894 152.239 160.989 159.971 165.384C173.732 173.206 187.869 180.368 202.725 188.642ZM246.361 179.728C260.007 173.673 266.767 161.604 272.262 148.895C276.382 139.364 274.558 135.171 264.966 131.134C257.653 128.057 252.129 123.817 247.535 117.208C242.18 109.506 239.6 109.923 233.568 117.455C231.638 119.864 230.758 123.224 228.586 125.301C225.016 128.716 220.886 131.588 216.81 134.425C208.241 140.388 206.958 145.254 213.045 153.448C218.234 160.432 224.348 166.722 229.677 173.61C233.714 178.828 238.655 180.811 246.361 179.728ZM337.462 254.201C375.22 238.449 396.118 207.24 411.867 171.636C405.289 171.715 399.685 175.116 395.522 180.934C389.609 189.199 384.264 197.886 378.102 205.955C358.186 232.031 331.615 247.553 299.708 254.199C293.001 255.596 286.165 256.369 279.388 257.43C298.88 262.897 317.707 261.067 337.462 254.201ZM255.098 260.901C263.732 254.691 268.438 246.873 267.667 235.632C266.897 224.414 259.655 214.601 247.875 211.095C236.896 207.828 223.557 213.706 216.918 224.736C211.787 233.261 213.57 247.328 220.281 254.847C229.963 265.694 241.425 266.872 255.098 260.901ZM358.678 69.6784C338.259 57.8105 317.249 47.3548 293.602 41.9737C297.615 50.2788 301.431 57.4133 311.007 60.0129C340.647 68.0587 366.924 82.6372 390.31 102.514C394.82 106.347 399.592 109.871 404.244 113.538C404.711 112.975 405.178 112.411 405.645 111.847C403.889 109.954 402.275 107.9 400.353 106.193C386.841 94.1927 373.265 82.2636 358.678 69.6784ZM387.006 399.727C386.883 400.226 386.76 400.725 386.637 401.224C387.267 401.177 387.898 401.13 388.529 401.082C388.441 400.485 388.354 399.887 387.006 399.727ZM131.604 352.285C132.198 352.388 132.792 352.492 133.386 352.595C133.287 351.984 133.297 351.316 133.023 350.798C132.94 350.643 132.067 350.907 131.604 352.285Z" fill="black"/>
<path d="M724.279 210.137C731.08 207.702 737.679 205.068 744.491 204.284C750.582 203.583 754.842 210.603 751.761 216.004C748.671 221.419 744.278 226.091 739.686 232.097C733.984 226.221 729.503 222.04 725.624 217.361C724.342 215.815 724.611 212.985 724.279 210.137Z" fill="black"/>
<path d="M226.635 157.677C225.27 156.736 224.24 156.32 223.21 155.904C223.583 155.157 223.957 154.409 224.331 153.662C235.77 156.187 246.986 157.098 257.151 149.802C256.315 148.437 255.326 146.823 254.055 144.748C260.643 143.151 263.793 145.398 264.241 151.415C264.413 153.737 263.969 152.957 260.327 154.395C256.818 155.78 254.366 159.72 250.89 161.332C240.343 166.224 236.241 168.005 226.635 157.677Z" fill="black"/>
<path d="M244.24 148.757C234.961 151.986 230.498 149.713 228.69 140.446C232.767 141.791 236.301 143.874 239.831 143.866C243.427 143.857 247.017 141.791 250.611 140.626C251.012 141.235 251.414 141.844 251.815 142.453C249.454 144.415 247.093 146.378 244.24 148.757Z" fill="black"/>
<path d="M251.288 167.857C242.401 177.269 241.236 177.225 234.877 167.193C240.629 167.193 245.963 167.193 251.288 167.857Z" fill="black"/>
<path d="M236.025 252.373C229.087 249.173 225.425 243.694 225.698 237.242C225.969 230.833 229.815 225.818 236.55 223.195C238.736 222.343 239.786 218.578 241.498 215.926C258.487 220.77 265.261 229.054 262.627 242.544C260.723 252.293 251.096 259.347 241.962 258.733C239.785 256.218 238.217 254.406 236.025 252.373Z" fill="black"/>
</svg>