<?xml version="1.0" standalone="no"?>
<!DOCTYPE svg PUBLIC "-//W3C//DTD SVG 20010904//EN"
 "http://www.w3.org/TR/2001/REC-SVG-20010904/DTD/svg10.dtd">
<svg version="1.0" xmlns="http://www.w3.org/2000/svg"
 width="300.000000pt" height="300.000000pt" viewBox="0 0 300.000000 300.000000"
 preserveAspectRatio="xMidYMid meet">
<metadata>
Created by potrace 1.10, written by Peter Selinger 2001-2011
</metadata>
<g transform="translate(0.000000,300.000000) scale(0.100000,-0.100000)"
fill="#000000" stroke="none">
<path d="M1174 2721 c-61 -16 -119 -33 -130 -39 -10 -5 -52 -24 -92 -41 -161
-67 -337 -210 -457 -370 -65 -86 -149 -243 -180 -336 -58 -174 -60 -186 -59
-440 l0 -240 41 -120 c71 -209 146 -340 280 -486 179 -195 398 -322 655 -379
133 -30 390 -28 543 5 246 52 443 159 615 334 159 162 266 346 326 561 28 102
29 111 29 335 l-1 230 -33 110 c-40 135 -122 306 -192 400 -69 92 -199 219
-291 282 -73 51 -226 133 -248 133 -6 0 -24 7 -41 15 -16 9 -79 29 -141 45
-104 27 -123 29 -312 29 -189 0 -207 -1 -312 -28z m556 -152 c324 -76 584
-269 728 -541 171 -320 176 -725 12 -1035 -118 -222 -304 -398 -525 -495 -185
-82 -355 -109 -550 -89 -370 38 -699 264 -873 598 -86 166 -117 300 -117 503
1 142 3 165 32 275 18 66 50 156 72 200 84 172 223 333 370 429 159 103 336
166 511 180 88 7 256 -6 340 -25z"/>
<path d="M1355 2436 c-5 -3 -37 -12 -70 -21 -33 -9 -69 -21 -80 -26 -11 -4
-37 -15 -59 -24 -40 -16 -212 -126 -260 -167 -91 -76 -166 -154 -166 -171 0
-10 25 -55 55 -99 30 -44 55 -81 55 -83 0 -2 41 -65 91 -140 49 -75 93 -143
95 -150 9 -22 34 -26 40 -7 4 9 12 31 19 47 7 17 16 41 20 55 4 14 27 65 51
113 182 370 475 507 882 415 42 -10 65 -11 69 -5 19 31 -224 178 -382 233 -69
23 -99 28 -215 30 -74 2 -139 2 -145 0z"/>
<path d="M1786 1901 c-17 -6 -14 -13 26 -62 97 -119 179 -276 213 -405 21 -81
21 -271 0 -355 -33 -128 -109 -264 -209 -375 -68 -77 -58 -94 32 -53 228 103
404 266 487 455 56 127 85 346 65 494 -28 204 -47 284 -74 302 -14 10 -515 9
-540 -1z"/>
<path d="M626 1738 c-13 -62 -26 -201 -26 -283 0 -224 90 -444 242 -593 126
-124 331 -239 529 -297 l79 -23 19 27 c10 14 34 55 53 91 19 36 76 140 126
231 51 92 92 172 92 179 0 8 -8 10 -24 6 -117 -29 -344 -34 -462 -10 -186 38
-352 162 -462 345 -36 60 -112 241 -112 267 0 7 -4 20 -9 30 -5 9 -12 25 -15
35 -8 24 -25 21 -30 -5z"/>
</g>
</svg>
