<?xml version="1.0" standalone="no"?>
<!DOCTYPE svg PUBLIC "-//W3C//DTD SVG 20010904//EN"
 "http://www.w3.org/TR/2001/REC-SVG-20010904/DTD/svg10.dtd">
<svg version="1.0" xmlns="http://www.w3.org/2000/svg"
 width="900.000000pt" height="900.000000pt" viewBox="0 0 900.000000 900.000000"
 preserveAspectRatio="xMidYMid meet">
<metadata>
Created by potrace 1.10, written by Peter Selinger 2001-2011
</metadata>
<g transform="translate(0.000000,900.000000) scale(0.100000,-0.100000)"
fill="#000000" stroke="none">
<path d="M4036 8665 c-13 -10 -44 -15 -92 -15 -40 0 -76 -4 -79 -10 -3 -5 -34
-10 -67 -10 -34 0 -75 -4 -92 -9 -81 -24 -193 -50 -251 -58 -22 -3 -44 -9 -49
-14 -6 -5 -25 -9 -42 -9 -18 0 -36 -4 -39 -10 -3 -5 -22 -10 -41 -10 -19 0
-51 -9 -71 -20 -21 -11 -47 -20 -58 -20 -12 0 -30 -7 -41 -15 -10 -8 -30 -15
-43 -15 -13 0 -49 -12 -79 -26 -31 -14 -83 -35 -116 -46 -34 -11 -103 -40
-155 -64 -51 -24 -99 -44 -106 -44 -7 0 -18 -7 -25 -15 -7 -8 -19 -15 -27 -15
-8 0 -34 -13 -57 -28 -23 -16 -54 -32 -67 -35 -14 -4 -41 -17 -60 -29 -19 -13
-50 -32 -69 -42 -19 -11 -53 -31 -75 -45 -22 -14 -51 -31 -65 -38 -14 -7 -56
-36 -95 -64 -38 -28 -93 -66 -120 -84 -45 -29 -82 -61 -225 -189 -218 -197
-266 -241 -269 -250 -3 -10 -20 -29 -140 -156 -45 -48 -126 -150 -156 -199
-11 -17 -58 -77 -79 -101 -7 -8 -21 -29 -29 -46 -9 -18 -27 -45 -40 -60 -14
-16 -37 -51 -51 -79 -45 -84 -67 -119 -86 -140 -17 -20 -45 -72 -95 -175 -14
-30 -37 -75 -50 -99 -14 -24 -25 -51 -25 -59 0 -9 -6 -23 -13 -31 -23 -28
-137 -305 -137 -333 0 -9 -7 -21 -15 -28 -8 -7 -15 -24 -15 -39 0 -14 -11 -53
-24 -86 -13 -33 -29 -80 -35 -105 -33 -136 -44 -177 -52 -192 -5 -10 -9 -32
-9 -50 0 -18 -7 -46 -15 -62 -8 -15 -15 -49 -15 -75 -1 -25 -7 -57 -15 -71 -8
-15 -14 -53 -15 -92 0 -37 -4 -70 -10 -73 -5 -3 -10 -41 -10 -84 0 -47 -6 -93
-15 -114 -12 -30 -15 -94 -15 -351 0 -218 4 -323 12 -343 6 -15 15 -77 19
-138 15 -206 24 -274 37 -287 6 -6 12 -34 12 -61 0 -26 5 -58 12 -70 6 -12 15
-42 19 -67 4 -25 12 -63 18 -85 34 -133 58 -215 64 -221 4 -4 7 -17 7 -29 0
-12 7 -30 15 -41 8 -10 15 -31 15 -46 0 -15 6 -42 14 -60 8 -18 22 -51 31 -73
9 -22 20 -47 24 -56 5 -8 21 -47 36 -85 28 -73 155 -335 190 -394 12 -19 39
-66 59 -105 21 -38 50 -86 65 -105 16 -19 36 -51 46 -70 10 -19 30 -49 44 -67
53 -64 91 -120 91 -134 0 -8 8 -22 18 -30 9 -9 40 -44 67 -79 28 -34 67 -79
88 -99 20 -20 37 -42 37 -48 0 -6 20 -28 45 -49 25 -20 45 -42 45 -49 0 -7 33
-43 73 -81 39 -37 81 -80 92 -95 26 -37 232 -219 247 -219 12 0 106 -77 148
-121 14 -15 34 -29 45 -33 11 -3 45 -26 75 -51 30 -25 58 -45 63 -45 4 0 39
-21 78 -48 86 -57 126 -81 204 -123 102 -53 134 -69 143 -69 5 0 16 -7 23 -16
7 -9 40 -29 74 -44 120 -56 226 -100 240 -100 8 0 45 -14 82 -31 38 -18 82
-35 98 -39 36 -10 88 -28 133 -47 18 -8 54 -18 80 -23 26 -4 72 -15 102 -22
30 -8 82 -20 115 -27 33 -7 74 -17 90 -23 55 -19 308 -47 515 -56 93 -4 164
-12 177 -19 30 -18 165 -16 210 2 27 11 78 15 219 15 111 0 185 4 189 10 3 5
44 10 90 10 46 0 87 4 90 10 3 5 23 10 44 10 21 0 58 7 82 15 24 9 52 14 63
11 10 -3 30 0 45 6 14 6 51 15 81 19 70 10 110 18 135 29 11 5 37 11 58 14 83
13 107 19 113 27 3 5 15 9 28 9 12 0 31 7 42 15 10 8 29 15 42 15 12 0 45 11
74 25 28 14 57 25 64 25 17 0 261 104 343 146 36 19 71 34 77 34 6 0 17 6 23
14 6 7 33 21 59 31 26 10 56 25 67 35 11 9 49 34 85 54 36 20 92 54 125 76 33
21 74 47 90 56 17 9 47 32 68 50 20 19 43 34 50 34 6 0 52 36 101 80 49 44 95
80 103 80 15 0 301 281 407 400 32 36 79 88 104 116 26 29 70 82 97 118 28 37
59 79 71 94 39 50 150 216 179 267 16 28 37 60 48 72 27 30 78 125 121 223 8
19 29 59 46 89 17 30 38 75 47 100 8 25 25 69 38 96 13 28 35 82 50 120 15 39
33 85 41 103 8 18 14 41 14 52 0 11 7 36 16 57 27 62 31 74 49 153 9 41 20 80
25 85 4 6 10 30 13 55 6 59 26 132 38 145 5 5 9 39 9 75 0 39 5 71 13 78 13
14 23 102 35 302 4 69 13 135 20 147 19 34 17 527 -3 583 -9 25 -15 78 -15
131 0 48 -4 91 -10 94 -5 3 -10 41 -10 84 0 52 -5 83 -15 97 -8 10 -15 41 -15
67 0 27 -5 58 -12 70 -12 22 -24 82 -35 167 -3 25 -9 50 -14 55 -4 6 -13 33
-19 60 -6 27 -17 63 -25 80 -7 16 -15 44 -18 60 -3 17 -15 55 -27 85 -12 30
-24 66 -27 80 -5 28 -44 133 -73 195 -10 22 -32 70 -49 107 -17 37 -31 72 -31
78 0 6 -11 27 -23 48 -13 20 -27 50 -31 66 -4 17 -21 46 -37 67 -16 20 -29 42
-29 49 0 16 -29 69 -56 100 -29 35 -94 149 -94 164 0 8 -7 20 -17 27 -9 8 -44
52 -79 99 -114 155 -159 212 -206 264 -25 28 -87 96 -136 151 -49 55 -103 111
-118 124 -16 14 -102 90 -192 170 -89 80 -175 150 -191 157 -15 6 -44 28 -63
48 -19 20 -40 36 -45 36 -6 0 -30 15 -54 33 -24 17 -56 39 -70 47 -15 8 -57
35 -95 60 -92 60 -105 68 -134 82 -14 7 -38 22 -55 34 -16 12 -52 29 -78 39
-26 10 -50 22 -53 26 -5 9 -107 59 -212 104 -31 14 -70 32 -85 40 -16 8 -37
15 -47 15 -9 0 -39 9 -66 21 -79 33 -87 36 -134 53 -25 9 -55 16 -67 16 -11 0
-26 7 -33 15 -7 8 -20 15 -29 15 -9 0 -21 4 -27 8 -5 5 -36 14 -69 21 -33 7
-74 16 -91 22 -17 5 -40 9 -52 9 -11 0 -24 5 -27 10 -3 6 -22 10 -41 10 -20 0
-44 5 -54 10 -10 6 -38 12 -61 15 -23 3 -47 9 -53 12 -21 13 -153 34 -331 51
-44 5 -93 14 -108 20 -20 9 -135 12 -400 12 -311 -1 -375 -3 -391 -15z m714
-484 c194 -11 294 -23 333 -39 16 -7 33 -10 37 -7 5 3 26 -1 46 -10 20 -8 56
-15 80 -15 23 0 45 -4 48 -9 6 -9 17 -11 123 -29 28 -4 57 -13 65 -18 7 -6 38
-16 68 -24 30 -7 74 -21 98 -31 24 -11 51 -19 59 -19 9 0 49 -16 90 -35 41
-19 82 -35 93 -35 10 0 31 -6 47 -14 15 -8 51 -24 78 -36 28 -13 64 -33 80
-45 17 -12 47 -27 67 -34 21 -7 40 -17 44 -22 3 -5 33 -23 67 -39 34 -16 71
-35 82 -42 11 -7 38 -24 60 -38 66 -41 79 -49 105 -62 14 -7 41 -24 60 -38 19
-14 46 -31 60 -38 14 -7 54 -40 90 -72 35 -33 70 -60 77 -60 16 0 202 -162
317 -276 95 -95 306 -345 346 -411 11 -18 23 -33 28 -33 4 0 16 -17 27 -37 11
-21 34 -57 51 -79 17 -23 41 -61 53 -85 12 -24 30 -57 40 -74 10 -16 34 -61
55 -99 21 -38 51 -90 67 -116 16 -26 29 -55 29 -64 0 -9 11 -37 24 -63 14 -27
29 -59 35 -73 25 -62 54 -147 58 -172 3 -15 11 -33 19 -39 8 -6 14 -21 14 -33
0 -12 4 -26 9 -32 10 -11 31 -78 66 -209 15 -55 31 -108 36 -117 5 -10 9 -42
9 -71 0 -31 6 -61 15 -73 8 -10 15 -41 15 -67 0 -27 6 -58 12 -70 21 -36 30
-192 34 -616 3 -268 1 -408 -6 -415 -5 -5 -10 -47 -10 -92 0 -60 -4 -85 -15
-94 -10 -8 -15 -31 -15 -64 -1 -28 -7 -62 -15 -76 -8 -14 -14 -44 -15 -67 0
-23 -5 -45 -10 -48 -6 -3 -10 -17 -10 -31 0 -14 -5 -34 -11 -45 -5 -11 -12
-32 -14 -47 -4 -27 -6 -36 -45 -152 -12 -36 -24 -76 -27 -90 -10 -51 -79 -218
-140 -339 -24 -46 -43 -92 -43 -102 0 -10 -5 -21 -10 -24 -6 -4 -23 -32 -39
-64 -16 -31 -37 -63 -46 -71 -9 -8 -21 -23 -26 -35 -18 -39 -71 -130 -97 -165
-15 -19 -35 -51 -46 -70 -10 -19 -25 -39 -32 -43 -8 -4 -21 -22 -30 -40 -10
-18 -25 -41 -35 -52 -10 -11 -52 -60 -93 -110 -139 -165 -201 -232 -292 -315
-180 -165 -326 -290 -336 -290 -7 0 -31 -16 -53 -36 -21 -20 -53 -43 -70 -50
-18 -7 -38 -20 -45 -29 -8 -9 -30 -25 -49 -36 -20 -11 -56 -33 -81 -49 -25
-17 -58 -37 -75 -45 -16 -8 -52 -29 -80 -45 -27 -17 -97 -53 -155 -80 -58 -28
-118 -57 -133 -65 -16 -8 -33 -15 -38 -15 -6 0 -36 -13 -67 -28 -32 -16 -71
-32 -87 -36 -17 -4 -52 -15 -80 -25 -97 -37 -274 -91 -296 -91 -13 0 -36 -4
-53 -9 -78 -23 -176 -42 -186 -36 -6 4 -21 0 -34 -8 -12 -8 -54 -18 -92 -21
-38 -4 -121 -11 -184 -17 -201 -18 -793 -10 -815 12 -5 5 -27 9 -50 9 -22 0
-58 7 -80 14 -22 8 -58 12 -78 9 -21 -2 -44 0 -51 6 -8 7 -37 14 -65 18 -28 3
-54 10 -57 14 -3 5 -18 9 -34 9 -16 0 -32 5 -35 10 -3 6 -22 10 -41 10 -19 0
-49 7 -66 16 -40 21 -138 53 -162 54 -10 0 -40 11 -68 25 -27 14 -56 25 -64
25 -7 0 -35 10 -61 22 -27 11 -61 27 -78 33 -27 11 -95 42 -205 93 -19 9 -42
22 -51 29 -21 18 -151 83 -165 83 -6 0 -19 9 -29 20 -10 11 -27 22 -39 26 -11
4 -43 26 -70 50 -26 24 -55 44 -63 44 -7 0 -36 20 -62 45 -26 25 -55 45 -63
45 -8 0 -31 15 -50 32 -104 97 -147 132 -181 149 -20 11 -37 24 -37 30 0 13
-113 122 -181 176 -26 21 -51 47 -55 58 -3 11 -26 40 -50 65 -76 77 -134 143
-134 152 0 5 -17 26 -37 47 -48 49 -122 145 -147 191 -10 19 -30 49 -44 65
-14 17 -31 44 -39 60 -7 17 -22 44 -32 60 -9 17 -34 59 -53 95 -20 36 -50 89
-66 117 -62 105 -182 378 -182 414 0 9 -7 22 -15 29 -8 7 -15 19 -15 28 0 8
-9 40 -19 71 -10 31 -27 83 -36 116 -10 33 -22 70 -26 83 -5 13 -9 35 -9 51 0
15 -7 36 -15 47 -8 10 -15 37 -15 60 0 22 -5 45 -11 51 -13 13 -26 100 -38
238 -4 50 -13 103 -19 118 -9 20 -12 130 -12 378 0 288 3 356 15 386 9 22 15
67 15 119 0 45 5 86 10 89 6 3 10 26 10 51 0 25 7 61 15 81 8 19 15 56 15 82
0 25 7 55 15 65 8 11 15 29 15 40 0 11 4 33 9 50 5 17 17 58 26 91 10 33 26
83 36 110 10 28 19 59 19 70 0 30 63 181 155 370 29 61 58 121 64 135 6 14 27
52 46 85 18 33 44 78 55 99 12 21 31 48 41 60 11 11 36 50 55 86 20 36 53 85
73 110 20 25 44 56 53 70 25 40 112 142 273 321 96 107 333 322 383 348 15 7
48 32 73 55 43 38 106 81 168 115 14 7 35 21 46 30 11 10 31 23 45 29 14 7 43
24 65 37 22 14 54 32 71 40 17 8 36 21 44 29 7 9 16 16 21 16 9 0 172 78 239
115 25 13 54 25 64 25 11 0 44 12 74 26 31 14 83 35 116 46 34 10 70 23 81 27
11 5 61 21 110 36 50 15 99 31 110 36 11 4 38 10 60 13 61 7 129 21 142 29 6
4 35 10 65 13 29 3 58 9 63 12 14 10 136 22 297 30 75 4 140 11 144 15 9 8
203 4 474 -12z"/>
<path d="M4323 7611 c-18 -5 -84 -9 -147 -9 -67 0 -124 -5 -136 -12 -12 -7
-51 -16 -87 -21 -35 -5 -77 -16 -93 -24 -16 -8 -48 -15 -72 -15 -26 0 -55 -8
-73 -20 -16 -11 -46 -20 -66 -20 -20 0 -42 -6 -48 -14 -7 -8 -30 -17 -51 -21
-21 -4 -44 -13 -50 -20 -6 -8 -26 -17 -43 -21 -18 -4 -48 -15 -67 -25 -19 -11
-43 -19 -52 -19 -10 0 -18 -4 -18 -10 0 -5 -12 -12 -27 -16 -16 -4 -39 -14
-53 -23 -14 -8 -51 -28 -83 -42 -33 -15 -74 -40 -92 -58 -18 -17 -40 -31 -48
-31 -19 0 -72 -33 -128 -77 -23 -18 -47 -33 -54 -33 -8 0 -35 -18 -60 -40 -25
-22 -50 -40 -55 -40 -4 0 -39 -24 -76 -54 -38 -29 -79 -56 -91 -60 -12 -4 -50
-37 -85 -74 -35 -37 -82 -76 -103 -87 -21 -11 -86 -66 -144 -122 -58 -57 -157
-151 -218 -210 -126 -119 -130 -128 -85 -195 15 -23 36 -56 47 -73 42 -66 81
-127 102 -158 75 -110 113 -169 113 -177 0 -6 15 -27 33 -47 18 -21 39 -52 46
-69 7 -18 26 -44 42 -60 16 -15 29 -35 29 -45 0 -9 18 -39 40 -67 22 -27 40
-55 40 -61 0 -6 15 -28 34 -48 18 -21 39 -50 47 -65 32 -60 80 -136 94 -148 8
-7 15 -19 15 -28 0 -8 15 -33 34 -56 18 -23 36 -51 40 -64 4 -12 25 -43 47
-68 21 -25 39 -51 39 -57 0 -7 13 -28 30 -47 16 -19 29 -40 30 -47 0 -6 10
-24 23 -40 12 -15 30 -45 41 -65 38 -75 96 -102 96 -44 0 23 17 64 56 138 8
14 14 38 14 53 0 14 9 44 20 66 11 21 29 57 40 78 11 22 20 51 20 64 0 13 9
36 20 50 11 14 20 32 20 40 0 8 7 20 15 27 8 7 15 19 15 27 0 24 75 183 153
323 14 25 42 77 62 116 20 40 47 82 60 94 13 12 26 33 30 48 3 14 22 43 41 65
19 23 34 45 34 50 0 5 21 32 46 61 26 28 53 65 60 81 16 36 317 337 359 358
17 9 54 36 83 61 30 25 59 46 66 46 7 0 23 11 36 24 12 14 41 34 64 46 22 11
48 24 56 29 8 5 38 18 65 30 28 12 57 26 65 31 45 28 142 70 162 70 13 0 32 7
42 15 11 8 35 15 55 15 19 0 43 8 53 17 11 10 42 18 76 21 32 2 65 11 75 20
14 13 47 17 148 19 101 2 136 7 162 20 28 16 60 18 237 18 177 0 209 -2 237
-18 25 -13 62 -18 165 -21 89 -2 146 -8 173 -19 22 -8 77 -18 122 -21 46 -3
96 -12 112 -21 17 -8 45 -15 64 -15 18 0 42 -7 53 -15 21 -16 60 -20 68 -6 6
10 -120 131 -137 131 -5 0 -31 18 -57 40 -26 22 -53 40 -60 40 -6 0 -32 18
-57 40 -25 22 -53 40 -63 40 -9 0 -27 11 -39 24 -13 14 -37 30 -54 37 -18 7
-48 26 -68 42 -43 33 -50 37 -267 145 -209 105 -239 118 -279 127 -17 3 -37
12 -43 20 -6 7 -28 16 -50 20 -21 4 -46 13 -57 20 -10 8 -28 15 -41 15 -12 0
-39 9 -59 20 -21 11 -56 20 -78 20 -22 0 -48 7 -59 15 -10 7 -44 17 -75 20
-31 4 -82 13 -114 21 -32 8 -104 17 -160 18 -56 2 -149 6 -207 10 -58 3 -120
2 -137 -3z"/>
<path d="M5455 5820 c-12 -19 37 -104 97 -168 31 -34 73 -86 93 -115 19 -28
43 -63 53 -77 48 -63 232 -347 232 -357 0 -7 13 -31 29 -55 38 -57 147 -275
156 -313 3 -16 11 -35 16 -41 17 -21 59 -109 59 -124 0 -9 9 -33 20 -55 11
-22 20 -53 20 -69 0 -16 7 -37 16 -47 9 -10 18 -37 21 -61 3 -24 12 -55 19
-70 8 -15 14 -53 14 -85 0 -40 7 -71 21 -98 21 -38 21 -51 21 -423 0 -351 -1
-385 -17 -402 -12 -14 -20 -45 -25 -100 -4 -45 -12 -86 -19 -93 -6 -6 -11 -30
-11 -52 0 -29 -6 -47 -20 -60 -13 -12 -20 -31 -20 -53 0 -20 -7 -43 -15 -52
-9 -10 -19 -35 -22 -56 -3 -22 -24 -71 -45 -111 -21 -39 -38 -78 -38 -86 0 -8
-7 -20 -15 -27 -8 -7 -15 -19 -15 -27 0 -8 -9 -26 -20 -40 -11 -14 -20 -32
-20 -40 0 -8 -9 -27 -21 -41 -40 -51 -89 -134 -89 -150 0 -9 -11 -27 -24 -41
-13 -15 -37 -47 -53 -72 -65 -106 -109 -167 -152 -209 -25 -25 -53 -58 -61
-75 -8 -16 -53 -71 -101 -121 -96 -100 -112 -123 -99 -144 7 -11 16 -12 52 -1
85 25 516 239 649 323 30 18 61 38 70 43 69 41 159 107 168 122 5 11 27 28 48
39 21 10 70 48 108 84 39 36 88 81 110 100 69 61 300 311 303 328 2 10 17 31
32 47 15 17 44 56 64 87 20 31 40 59 46 63 5 3 10 14 10 24 0 10 15 38 33 62
18 24 38 55 45 69 6 14 16 32 21 40 19 29 51 107 51 121 0 13 19 58 61 141 11
20 19 49 19 63 0 15 9 38 20 52 14 17 20 41 20 72 0 26 7 56 15 67 8 10 15 38
15 62 0 24 7 57 16 75 9 17 20 67 25 112 5 44 13 123 19 175 6 52 15 139 20
193 6 53 15 141 21 195 13 116 -9 432 -37 522 -9 30 -19 100 -23 155 -4 55
-15 120 -24 145 -9 25 -17 73 -17 106 0 40 -5 66 -14 73 -9 8 -15 40 -17 95
-3 62 -9 89 -21 103 -10 11 -18 35 -18 54 -1 19 -8 52 -16 74 -9 22 -19 56
-23 76 -4 19 -11 41 -15 47 -10 16 -1812 17 -1821 2z"/>
<path d="M1599 5314 c-8 -10 -16 -60 -20 -132 -4 -65 -13 -133 -19 -152 -6
-19 -15 -87 -20 -150 -4 -63 -15 -153 -24 -199 -23 -128 -30 -424 -11 -485 8
-27 15 -83 15 -124 0 -79 14 -175 32 -227 6 -16 16 -66 22 -110 6 -44 17 -90
24 -102 6 -12 12 -44 12 -71 0 -34 6 -57 20 -75 11 -14 20 -38 20 -54 0 -15 9
-43 20 -61 11 -18 20 -42 20 -53 0 -12 17 -58 39 -102 21 -45 50 -108 65 -139
14 -31 31 -60 36 -63 6 -3 10 -14 10 -24 0 -10 9 -26 20 -36 11 -10 20 -27 20
-37 0 -11 16 -38 35 -61 19 -22 35 -45 35 -51 0 -6 18 -33 40 -61 22 -27 40
-55 40 -62 0 -6 27 -39 60 -73 33 -35 76 -86 95 -114 41 -62 231 -244 273
-261 16 -7 39 -26 50 -43 12 -16 56 -53 99 -82 42 -29 85 -62 95 -75 10 -13
29 -26 42 -29 14 -3 37 -17 52 -31 14 -13 51 -39 81 -57 102 -61 148 -88 163
-94 8 -3 22 -9 30 -14 8 -5 33 -18 55 -29 22 -11 48 -25 58 -31 42 -25 53 -31
77 -41 14 -6 32 -15 40 -20 8 -5 22 -12 30 -15 17 -6 167 -77 222 -105 20 -11
48 -19 61 -19 14 0 30 -6 36 -14 7 -8 27 -17 45 -20 19 -4 39 -13 46 -21 7 -8
27 -15 45 -15 18 0 44 -9 58 -20 14 -11 38 -20 54 -20 15 0 42 -9 58 -20 17
-11 46 -20 66 -20 20 0 42 -7 49 -15 7 -8 27 -15 44 -15 17 0 47 -8 66 -18 19
-11 58 -22 86 -25 47 -5 54 -3 76 21 14 15 40 56 58 92 18 36 38 72 45 80 8 8
31 49 52 90 21 41 46 86 56 100 9 13 17 32 17 41 0 9 6 22 14 28 8 7 17 25 21
40 3 16 17 39 30 51 14 13 30 39 36 58 7 20 29 61 50 91 22 31 39 63 39 72 0
9 7 22 15 29 8 7 15 20 15 30 0 9 8 28 19 41 10 13 31 48 47 78 16 29 46 83
66 120 20 36 46 84 57 106 12 22 25 47 30 55 5 8 14 26 20 40 18 41 57 107 80
136 12 15 21 32 21 38 0 6 9 22 20 36 11 14 20 32 20 41 0 9 9 24 20 34 11 10
20 28 20 40 0 13 7 28 16 35 12 11 44 72 44 86 0 2 -9 8 -21 14 -16 9 -24 8
-37 -3 -10 -9 -47 -17 -92 -20 -41 -2 -88 -12 -105 -21 -20 -11 -55 -16 -106
-16 -49 0 -92 -6 -120 -17 -39 -16 -90 -18 -479 -18 -392 0 -439 2 -478 18
-23 9 -68 17 -99 17 -38 0 -62 5 -74 16 -11 10 -46 19 -84 23 -36 4 -70 12
-77 19 -7 7 -25 12 -40 12 -28 0 -126 36 -180 65 -14 8 -34 15 -43 15 -30 0
-309 151 -352 191 -24 21 -50 39 -58 39 -9 0 -40 22 -68 49 -29 27 -70 58 -92
69 -49 25 -277 257 -304 309 -11 21 -36 54 -56 73 -20 19 -48 55 -62 80 -14
25 -41 62 -60 83 -18 20 -33 42 -33 49 0 11 -17 39 -80 133 -15 22 -30 50 -34
62 -4 13 -18 42 -32 65 -39 67 -41 71 -53 98 -6 14 -25 50 -41 80 -17 30 -30
65 -30 77 0 12 -9 37 -20 55 -11 18 -20 40 -20 49 0 9 -7 22 -15 29 -8 7 -17
28 -21 49 -3 20 -12 45 -19 56 -6 11 -15 38 -19 59 -4 22 -14 49 -22 60 -8 11
-14 32 -14 46 0 14 -9 43 -20 65 -11 22 -20 52 -20 67 0 15 -9 42 -20 60 -11
19 -20 51 -20 74 0 56 -25 80 -51 48z"/>
</g>
</svg>
